<svg width="23" height="23" viewBox="0 0 23 23" fill="none" xmlns="http://www.w3.org/2000/svg">
<path d="M15.1953 17.3007L6.9256 17.3007C6.71125 17.3008 6.49897 17.2586 6.30091 17.1767C6.10285 17.0947 5.92289 16.9745 5.77132 16.8229C5.61974 16.6713 5.49953 16.4914 5.41756 16.2933C5.33558 16.0953 5.29345 15.883 5.29357 15.6686L5.2878 5.76688L8.93337 2.12132C10.1049 0.949747 12.0044 0.949747 13.176 2.12132L16.8216 5.76688L16.8216 15.6744C16.8203 16.1053 16.6485 16.5182 16.3438 16.8229C16.0391 17.1276 15.6262 17.2994 15.1953 17.3007Z" stroke="#CCCCCC" stroke-width="1.5" stroke-linecap="round" stroke-linejoin="round"/>
<path d="M11.0547 6.58594L11.061 6.59223" stroke="#CCCCCC" stroke-width="1.5" stroke-linecap="round" stroke-linejoin="round"/>
</svg>
