<svg width="108" height="30" viewBox="0 0 108 30" fill="none" xmlns="http://www.w3.org/2000/svg">
<mask id="mask0_1_3289" style="mask-type:luminance" maskUnits="userSpaceOnUse" x="0" y="0" width="23" height="30">
<path d="M22.7027 0H0V30H22.7027V0Z" fill="white"/>
</mask>
<g mask="url(#mask0_1_3289)">
<mask id="mask1_1_3289" style="mask-type:luminance" maskUnits="userSpaceOnUse" x="4" y="2" width="19" height="28">
<path d="M7.35331 29.3886V14.5592C7.35331 12.1062 6.78937 9.59757 8.98949 8.78327C10.7824 8.11816 12.5678 7.46823 14.3811 6.82083C15.3192 6.48449 16.1841 6.15574 17.0996 5.82952C17.6054 5.64744 17.9797 5.43501 18.5689 5.62974C18.7851 5.70173 18.9814 5.82308 19.1425 5.98418C19.3037 6.14527 19.425 6.34169 19.4969 6.55784C19.6563 7.05097 19.5728 9.47108 19.5728 10.1716C19.5728 11.4361 19.5248 12.2959 19.0671 13.3554C17.7571 16.3623 15.4078 16.8377 12.4919 17.9075C11.7334 18.1831 10.5245 18.7066 9.80127 18.8659V21.4909L13.2406 20.2618C16.7481 18.962 19.5956 18.4233 21.3329 14.5819C21.9197 13.2897 22.0284 12.172 22.0284 10.6116C22.0284 9.1727 22.1144 7.44294 22.0284 6.03689C21.9837 5.45906 21.7926 4.90213 21.4732 4.41856C21.1538 3.93498 20.7165 3.54069 20.2025 3.27281C18.8977 2.57484 17.7925 2.94659 16.5407 3.4195C14.2976 4.26667 12.0646 5.0405 9.79114 5.87504C8.63541 6.29989 7.40135 6.6337 6.56682 7.28615C5.65257 8.01368 5.06417 9.07411 4.93064 10.2348C4.82443 11.1478 4.90535 22.0472 4.90535 23.9591C4.90535 25.4283 4.83707 27.062 4.90535 28.511L7.35331 29.3886Z" fill="white"/>
</mask>
<g mask="url(#mask1_1_3289)">
<path d="M22.1165 2.56641H4.81641V29.3903H22.1165V2.56641Z" fill="url(#paint0_linear_1_3289)"/>
</g>
<mask id="mask2_1_3289" style="mask-type:luminance" maskUnits="userSpaceOnUse" x="0" y="0" width="16" height="28">
<path d="M2.45577 13.0153C2.45577 10.6988 2.23576 8.74651 3.56848 6.8195C4.75959 5.0948 5.99367 4.68764 7.93839 3.96185C9.83502 3.25124 13.201 1.97162 15.0193 1.38745C14.8093 1.22814 13.4665 0.783047 13.11 0.656602C11.2512 -0.000906527 10.4242 0.451766 8.78299 1.03088C5.34881 2.24222 2.54175 2.97053 0.860041 6.39463C0.12414 7.89426 0.0078125 9.02721 0.0078125 10.8531V26.7294L2.46083 27.5917L2.45577 13.0153Z" fill="white"/>
</mask>
<g mask="url(#mask2_1_3289)">
<path d="M15.0114 0H0V27.5926H15.0114V0Z" fill="url(#paint1_linear_1_3289)"/>
</g>
<mask id="mask3_1_3289" style="mask-type:luminance" maskUnits="userSpaceOnUse" x="9" y="8" width="9" height="9">
<path d="M9.8072 16.2788C10.2902 16.135 10.7654 15.9662 11.231 15.7731C12.3765 15.3432 14.4376 14.7034 15.2772 14.1369C17.3888 12.7081 17.1485 10.5408 17.1485 8.41406C16.9311 8.46206 14.7386 9.17274 14.6778 9.3649C14.6171 9.55706 15.0951 11.6055 13.1605 12.4426L9.80469 13.6488L9.8072 16.2788Z" fill="white"/>
</mask>
<g mask="url(#mask3_1_3289)">
<path d="M17.3891 8.42188H9.79492V16.2816H17.3891V8.42188Z" fill="url(#paint2_linear_1_3289)"/>
</g>
</g>
<path d="M29.1406 22.7001V6.75515H35.1199C36.3449 6.75515 37.3726 6.98353 38.2031 7.44028C39.0387 7.89704 39.6693 8.52512 40.095 9.32441C40.5258 10.1185 40.7411 11.0217 40.7411 12.0338C40.7411 13.0563 40.5258 13.9646 40.095 14.7588C39.6641 15.5529 39.0283 16.1784 38.1875 16.6351C37.3467 17.0867 36.3112 17.3124 35.081 17.3124H31.1181V14.9378H34.6918C35.408 14.9378 35.9946 14.8133 36.4513 14.5641C36.908 14.315 37.2454 13.9725 37.4634 13.5364C37.6866 13.1004 37.7982 12.5996 37.7982 12.0338C37.7982 11.468 37.6866 10.9698 37.4634 10.5389C37.2454 10.1081 36.9054 9.77336 36.4435 9.53466C35.9868 9.29068 35.3977 9.16866 34.6762 9.16866H32.0291V22.7001H29.1406ZM45.7247 6.75515V22.7001H42.9062V6.75515H45.7247ZM51.1871 22.9415C50.4294 22.9415 49.7468 22.8065 49.1395 22.5367C48.5374 22.2615 48.0599 21.8567 47.707 21.3221C47.3592 20.7874 47.1853 20.1282 47.1853 19.3445C47.1853 18.6697 47.3099 18.1118 47.5591 17.6706C47.8082 17.2294 48.1481 16.8765 48.579 16.6117C49.0098 16.347 49.4951 16.1472 50.0349 16.0122C50.5798 15.8721 51.143 15.7709 51.7244 15.7087C52.4251 15.6359 52.9934 15.5711 53.4294 15.514C53.8654 15.4517 54.182 15.3583 54.3792 15.2337C54.5817 15.104 54.6829 14.9041 54.6829 14.6342V14.5875C54.6829 14.001 54.509 13.5468 54.1613 13.225C53.8135 12.9032 53.3126 12.7423 52.6586 12.7423C51.9683 12.7423 51.4207 12.8928 51.0159 13.1938C50.6162 13.4949 50.3463 13.8504 50.2061 14.2605L47.5746 13.8868C47.7822 13.1601 48.1248 12.5528 48.6024 12.065C49.0798 11.5719 49.6638 11.2033 50.3541 10.9594C51.0444 10.7103 51.8074 10.5857 52.643 10.5857C53.2192 10.5857 53.7928 10.6532 54.3637 10.7881C54.9346 10.9231 55.4563 11.1462 55.9286 11.4577C56.4009 11.7639 56.7799 12.1817 57.0653 12.7112C57.3559 13.2405 57.5013 13.9023 57.5013 14.6965V22.7001H54.7919V21.0573H54.6984C54.5272 21.3895 54.2858 21.701 53.9744 21.9916C53.6681 22.2771 53.2815 22.508 52.8144 22.6845C52.3524 22.8558 51.81 22.9415 51.1871 22.9415ZM51.919 20.8705C52.4848 20.8705 52.9752 20.7589 53.3905 20.5357C53.8057 20.3073 54.1249 20.0063 54.3481 19.6326C54.5765 19.2589 54.6907 18.8514 54.6907 18.4102V17.001C54.6024 17.0737 54.4519 17.1412 54.2391 17.2035C54.0315 17.2657 53.7979 17.3202 53.5384 17.3669C53.2789 17.4137 53.022 17.4552 52.7676 17.4915C52.5133 17.5279 52.2927 17.559 52.1059 17.585C51.6855 17.642 51.3092 17.7355 50.977 17.8653C50.6448 17.995 50.3827 18.1767 50.1906 18.4102C49.9986 18.6386 49.9025 18.9345 49.9025 19.2978C49.9025 19.8169 50.092 20.2087 50.4709 20.4734C50.8498 20.7381 51.3325 20.8705 51.919 20.8705ZM69.712 10.7414L65.4532 22.7001H62.3389L58.0802 10.7414H61.0855L63.8338 19.6248H63.9584L66.7145 10.7414H69.712ZM75.6727 22.9337C74.4737 22.9337 73.4382 22.6845 72.5663 22.1862C71.6994 21.6828 71.0325 20.9717 70.5653 20.053C70.0982 19.1291 69.8647 18.0417 69.8647 16.7908C69.8647 15.5607 70.0982 14.4811 70.5653 13.552C71.0376 12.6178 71.6968 11.891 72.5429 11.372C73.3889 10.8478 74.3829 10.5857 75.5248 10.5857C76.2619 10.5857 76.9574 10.7051 77.6113 10.9438C78.2705 11.1774 78.8518 11.5407 79.3554 12.0338C79.864 12.5269 80.2636 13.1549 80.5543 13.9179C80.845 14.6758 80.9903 15.5788 80.9903 16.6273V17.4915H71.1882V15.5918H78.2887C78.2835 15.0521 78.1667 14.5719 77.9383 14.1515C77.71 13.7259 77.3908 13.3911 76.9807 13.1471C76.5758 12.9032 76.1035 12.7812 75.5637 12.7812C74.9876 12.7812 74.4815 12.9213 74.0455 13.2016C73.6095 13.4767 73.2696 13.8401 73.0256 14.2916C72.7868 14.738 72.6649 15.2285 72.6597 15.7631V17.4215C72.6597 18.117 72.7868 18.7138 73.0412 19.2122C73.2955 19.7052 73.6511 20.0841 74.1078 20.3488C74.5646 20.6084 75.0992 20.7381 75.7116 20.7381C76.1217 20.7381 76.4928 20.681 76.825 20.5669C77.1572 20.4474 77.4452 20.2736 77.6892 20.0452C77.9331 19.8169 78.1174 19.534 78.2419 19.1966L80.8735 19.4925C80.7074 20.188 80.3908 20.7952 79.9236 21.3143C79.4617 21.8281 78.87 22.2278 78.1485 22.5132C77.4271 22.7935 76.6018 22.9337 75.6727 22.9337ZM85.3163 15.6931V22.7001H82.4979V10.7414H85.1914V12.7734H85.3317C85.6065 12.1039 86.0452 11.5719 86.6476 11.1774C87.2549 10.7829 88.0049 10.5857 88.8976 10.5857C89.723 10.5857 90.4414 10.7621 91.0544 11.1151C91.6714 11.468 92.149 11.9793 92.4863 12.6489C92.8292 13.3185 92.9979 14.1307 92.993 15.0858V22.7001H90.1747V15.5218C90.1747 14.7225 89.9671 14.097 89.5511 13.6455C89.1417 13.1938 88.5733 12.9681 87.846 12.9681C87.353 12.9681 86.9144 13.0771 86.5309 13.2951C86.1514 13.5079 85.853 13.8167 85.6349 14.2215C85.4225 14.6264 85.3163 15.1169 85.3163 15.6931ZM100.953 10.7414V12.9213H94.0779V10.7414H100.953ZM95.7749 7.87628H98.5933V19.1031C98.5933 19.4821 98.6501 19.7727 98.7644 19.9751C98.8844 20.1724 99.0401 20.3073 99.2314 20.38C99.4236 20.4526 99.6368 20.489 99.8703 20.489C100.047 20.489 100.208 20.4761 100.353 20.45C100.504 20.4241 100.618 20.4007 100.696 20.38L101.17 22.5834C101.02 22.6353 100.804 22.6923 100.524 22.7546C100.249 22.8169 99.9117 22.8532 99.512 22.8636C98.8065 22.8844 98.1701 22.778 97.6049 22.5444C97.039 22.3057 96.5898 21.9371 96.2574 21.4388C95.9306 20.9406 95.7701 20.3177 95.7749 19.5703V7.87628ZM102.432 22.7001V10.7414H105.251V22.7001H102.432ZM103.85 9.04412C103.403 9.04412 103.019 8.89622 102.698 8.60036C102.376 8.2993 102.214 7.93857 102.214 7.51815C102.214 7.09253 102.376 6.7318 102.698 6.43594C103.019 6.13489 103.403 5.98438 103.85 5.98438C104.301 5.98438 104.685 6.13489 105.002 6.43594C105.324 6.7318 105.484 7.09253 105.484 7.51815C105.484 7.93857 105.324 8.2993 105.002 8.60036C104.685 8.89622 104.301 9.04412 103.85 9.04412Z" fill="white"/>
<defs>
<linearGradient id="paint0_linear_1_3289" x1="8.15197" y1="27.7136" x2="15.8625" y2="10.6816" gradientUnits="userSpaceOnUse">
<stop stop-color="#FF9933"/>
<stop offset="1" stop-color="#FFCC00"/>
</linearGradient>
<linearGradient id="paint1_linear_1_3289" x1="16.7411" y1="-1.93712" x2="3.94758" y2="19.8568" gradientUnits="userSpaceOnUse">
<stop stop-color="#99FFFF"/>
<stop offset="1" stop-color="#00CCFF"/>
</linearGradient>
<linearGradient id="paint2_linear_1_3289" x1="20.6363" y1="0.352265" x2="7.84264" y2="22.1461" gradientUnits="userSpaceOnUse">
<stop stop-color="#99FFFF"/>
<stop offset="1" stop-color="#00CCFF"/>
</linearGradient>
</defs>
</svg>
