<svg width="311" height="171" viewBox="0 0 311 171" fill="none" xmlns="http://www.w3.org/2000/svg">
<mask id="mask0_2014_1937" style="mask-type:alpha" maskUnits="userSpaceOnUse" x="0" y="0" width="311" height="171">
<rect width="311" height="171" rx="5" fill="white"/>
<rect x="0.5" y="0.5" width="310" height="170" rx="4.5" stroke="black" stroke-opacity="0.5"/>
</mask>
<g mask="url(#mask0_2014_1937)">
<g opacity="0.1">
<circle cx="-7.49699" cy="9.50301" r="22.503" fill="#D9D9D9"/>
<circle cx="-7.49699" cy="9.50301" r="21.9724" stroke="black" stroke-opacity="0.15" stroke-width="1.06124"/>
</g>
<g opacity="0.1">
<circle cx="47.085" cy="9.50301" r="22.503" fill="#D9D9D9"/>
<circle cx="47.085" cy="9.50301" r="21.9724" stroke="black" stroke-opacity="0.15" stroke-width="1.06124"/>
<path opacity="0.75" d="M45.9388 16.2049V2.79883H48.7014V16.2049H45.9388ZM40.3828 10.8306V8.16323H54.2676V10.8306H40.3828Z" fill="#111315"/>
</g>
<g opacity="0.1">
<circle cx="101.667" cy="9.50301" r="22.503" fill="#D9D9D9"/>
<circle cx="101.667" cy="9.50301" r="21.9724" stroke="black" stroke-opacity="0.15" stroke-width="1.06124"/>
<path opacity="0.75" d="M100.521 16.2049V2.79883H103.283V16.2049H100.521ZM94.9648 10.8306V8.16323H108.85V10.8306H94.9648Z" fill="#111315"/>
</g>
<g opacity="0.1">
<circle cx="156.253" cy="9.50301" r="22.503" fill="#D9D9D9"/>
<circle cx="156.253" cy="9.50301" r="21.9724" stroke="black" stroke-opacity="0.15" stroke-width="1.06124"/>
<path opacity="0.75" d="M155.107 16.2049V2.79883H157.869V16.2049H155.107ZM149.551 10.8306V8.16323H163.436V10.8306H149.551Z" fill="#111315"/>
</g>
<g opacity="0.1">
<circle cx="210.839" cy="9.50301" r="22.503" fill="#D9D9D9"/>
<circle cx="210.839" cy="9.50301" r="21.9724" stroke="black" stroke-opacity="0.15" stroke-width="1.06124"/>
<path opacity="0.75" d="M209.693 16.2049V2.79883H212.455V16.2049H209.693ZM204.137 10.8306V8.16323H218.022V10.8306H204.137Z" fill="#111315"/>
</g>
<g opacity="0.1">
<circle cx="265.409" cy="9.50301" r="22.503" fill="#D9D9D9"/>
<circle cx="265.409" cy="9.50301" r="21.9724" stroke="black" stroke-opacity="0.15" stroke-width="1.06124"/>
<path opacity="0.75" d="M264.263 16.2049V2.79883H267.026V16.2049H264.263ZM258.707 10.8306V8.16323H272.592V10.8306H258.707Z" fill="#111315"/>
</g>
<g opacity="0.1">
<circle cx="320.003" cy="9.50301" r="22.503" fill="#D9D9D9"/>
<circle cx="320.003" cy="9.50301" r="21.9724" stroke="black" stroke-opacity="0.15" stroke-width="1.06124"/>
</g>
<g opacity="0.1">
<circle cx="-7.49699" cy="60.128" r="22.503" fill="#D9D9D9"/>
<circle cx="-7.49699" cy="60.128" r="21.9724" stroke="black" stroke-opacity="0.15" stroke-width="1.06124"/>
</g>
<g opacity="0.1">
<circle cx="-7.49699" cy="110.753" r="22.503" fill="#D9D9D9"/>
<circle cx="-7.49699" cy="110.753" r="21.9724" stroke="black" stroke-opacity="0.15" stroke-width="1.06124"/>
</g>
<g opacity="0.1">
<circle cx="-7.49699" cy="161.376" r="22.503" fill="#D9D9D9"/>
<circle cx="-7.49699" cy="161.376" r="21.9724" stroke="black" stroke-opacity="0.15" stroke-width="1.06124"/>
</g>
<g opacity="0.1">
<circle cx="47.085" cy="161.376" r="22.503" fill="#D9D9D9"/>
<circle cx="47.085" cy="161.376" r="21.9724" stroke="black" stroke-opacity="0.15" stroke-width="1.06124"/>
<path opacity="0.75" d="M45.9388 168.078V154.672H48.7014V168.078H45.9388ZM40.3828 162.704V160.036H54.2676V162.704H40.3828Z" fill="#111315"/>
</g>
<g opacity="0.1">
<circle cx="101.667" cy="161.376" r="22.503" fill="#D9D9D9"/>
<circle cx="101.667" cy="161.376" r="21.9724" stroke="black" stroke-opacity="0.15" stroke-width="1.06124"/>
<path opacity="0.75" d="M100.521 168.078V154.672H103.283V168.078H100.521ZM94.9648 162.704V160.036H108.85V162.704H94.9648Z" fill="#111315"/>
</g>
<g opacity="0.1">
<circle cx="156.253" cy="161.376" r="22.503" fill="#D9D9D9"/>
<circle cx="156.253" cy="161.376" r="21.9724" stroke="black" stroke-opacity="0.15" stroke-width="1.06124"/>
<path opacity="0.75" d="M155.107 168.078V154.672H157.869V168.078H155.107ZM149.551 162.704V160.036H163.436V162.704H149.551Z" fill="#111315"/>
</g>
<g opacity="0.1">
<circle cx="210.839" cy="161.376" r="22.503" fill="#D9D9D9"/>
<circle cx="210.839" cy="161.376" r="21.9724" stroke="black" stroke-opacity="0.15" stroke-width="1.06124"/>
<path opacity="0.75" d="M209.693 168.078V154.672H212.455V168.078H209.693ZM204.137 162.704V160.036H218.022V162.704H204.137Z" fill="#111315"/>
</g>
<g opacity="0.1">
<circle cx="265.409" cy="161.376" r="22.503" fill="#D9D9D9"/>
<circle cx="265.409" cy="161.376" r="21.9724" stroke="black" stroke-opacity="0.15" stroke-width="1.06124"/>
<path opacity="0.75" d="M264.263 168.078V154.672H267.026V168.078H264.263ZM258.707 162.704V160.036H272.592V162.704H258.707Z" fill="#111315"/>
</g>
<g opacity="0.1">
<circle cx="320.003" cy="60.128" r="22.503" fill="#D9D9D9"/>
<circle cx="320.003" cy="60.128" r="21.9724" stroke="black" stroke-opacity="0.15" stroke-width="1.06124"/>
</g>
<g opacity="0.1">
<circle cx="320.003" cy="110.753" r="22.503" fill="#D9D9D9"/>
<circle cx="320.003" cy="110.753" r="21.9724" stroke="black" stroke-opacity="0.15" stroke-width="1.06124"/>
</g>
<g opacity="0.1">
<circle cx="320.003" cy="161.376" r="22.503" fill="#D9D9D9"/>
<circle cx="320.003" cy="161.376" r="21.9724" stroke="black" stroke-opacity="0.15" stroke-width="1.06124"/>
</g>
</g>
<g opacity="0.05">
<circle cx="101.667" cy="110.753" r="22.503" fill="#D9D9D9"/>
<circle cx="101.667" cy="110.753" r="21.9724" stroke="black" stroke-opacity="0.15" stroke-width="1.06124"/>
<path opacity="0.75" d="M100.521 117.455V104.049H103.283V117.455H100.521ZM94.9648 112.081V109.413H108.85V112.081H94.9648Z" fill="#111315"/>
</g>
<g opacity="0.05">
<circle cx="156.253" cy="110.753" r="22.503" fill="#D9D9D9"/>
<circle cx="156.253" cy="110.753" r="21.9724" stroke="black" stroke-opacity="0.15" stroke-width="1.06124"/>
<path opacity="0.75" d="M155.107 117.455V104.049H157.869V117.455H155.107ZM149.551 112.081V109.413H163.436V112.081H149.551Z" fill="#111315"/>
</g>
<g opacity="0.05">
<circle cx="210.839" cy="110.753" r="22.503" fill="#D9D9D9"/>
<circle cx="210.839" cy="110.753" r="21.9724" stroke="black" stroke-opacity="0.15" stroke-width="1.06124"/>
<path opacity="0.75" d="M209.693 117.455V104.049H212.455V117.455H209.693ZM204.137 112.081V109.413H218.022V112.081H204.137Z" fill="#111315"/>
</g>
<g opacity="0.15">
<circle cx="265.409" cy="110.753" r="22.503" fill="#D9D9D9"/>
<circle cx="265.409" cy="110.753" r="21.9724" stroke="black" stroke-opacity="0.15" stroke-width="1.06124"/>
<path opacity="0.75" d="M264.263 117.455V104.049H267.026V117.455H264.263ZM258.707 112.081V109.413H272.592V112.081H258.707Z" fill="#111315"/>
</g>
<g opacity="0.05">
<circle cx="101.667" cy="60.128" r="22.503" fill="#D9D9D9"/>
<circle cx="101.667" cy="60.128" r="21.9724" stroke="black" stroke-opacity="0.15" stroke-width="1.06124"/>
<path opacity="0.75" d="M100.521 66.8299V53.4238H103.283V66.8299H100.521ZM94.9648 61.4556V58.7882H108.85V61.4556H94.9648Z" fill="#111315"/>
</g>
<g opacity="0.05">
<circle cx="156.253" cy="60.128" r="22.503" fill="#D9D9D9"/>
<circle cx="156.253" cy="60.128" r="21.9724" stroke="black" stroke-opacity="0.15" stroke-width="1.06124"/>
<path opacity="0.75" d="M155.107 66.8299V53.4238H157.869V66.8299H155.107ZM149.551 61.4556V58.7882H163.436V61.4556H149.551Z" fill="#111315"/>
</g>
<g opacity="0.05">
<circle cx="210.839" cy="60.128" r="22.503" fill="#D9D9D9"/>
<circle cx="210.839" cy="60.128" r="21.9724" stroke="black" stroke-opacity="0.15" stroke-width="1.06124"/>
<path opacity="0.75" d="M209.693 66.8299V53.4238H212.455V66.8299H209.693ZM204.137 61.4556V58.7882H218.022V61.4556H204.137Z" fill="#111315"/>
</g>
<g filter="url(#filter0_d_2014_1937)">
<circle cx="155.5" cy="85.5" r="23" fill="#3DC4E6" stroke="#37B6D6"/>
<path d="M154.302 92.5V78.5H157.187V92.5H154.302ZM148.5 86.8876V84.1021H163V86.8876H148.5Z" fill="white"/>
</g>
<g opacity="0.15">
<circle cx="47.0811" cy="60.128" r="22.503" fill="#D9D9D9"/>
<circle cx="47.0811" cy="60.128" r="21.9724" stroke="black" stroke-opacity="0.15" stroke-width="1.06124"/>
<path opacity="0.75" d="M45.9349 66.8299V53.4238H48.6975V66.8299H45.9349ZM40.3789 61.4556V58.7882H54.2637V61.4556H40.3789Z" fill="#111315"/>
</g>
<g opacity="0.15">
<circle cx="47.0811" cy="110.753" r="22.503" fill="#D9D9D9"/>
<circle cx="47.0811" cy="110.753" r="21.9724" stroke="black" stroke-opacity="0.15" stroke-width="1.06124"/>
<path opacity="0.75" d="M45.9349 117.455V104.049H48.6975V117.455H45.9349ZM40.3789 112.081V109.413H54.2637V112.081H40.3789Z" fill="#111315"/>
</g>
<g opacity="0.15">
<circle cx="265.409" cy="60.128" r="22.503" fill="#D9D9D9"/>
<circle cx="265.409" cy="60.128" r="21.9724" stroke="black" stroke-opacity="0.15" stroke-width="1.06124"/>
<path opacity="0.75" d="M264.263 66.8299V53.4238H267.026V66.8299H264.263ZM258.707 61.4556V58.7882H272.592V61.4556H258.707Z" fill="#111315"/>
</g>
<defs>
<filter id="filter0_d_2014_1937" x="128" y="62" width="55" height="55" filterUnits="userSpaceOnUse" color-interpolation-filters="sRGB">
<feFlood flood-opacity="0" result="BackgroundImageFix"/>
<feColorMatrix in="SourceAlpha" type="matrix" values="0 0 0 0 0 0 0 0 0 0 0 0 0 0 0 0 0 0 127 0" result="hardAlpha"/>
<feOffset dy="4"/>
<feGaussianBlur stdDeviation="2"/>
<feComposite in2="hardAlpha" operator="out"/>
<feColorMatrix type="matrix" values="0 0 0 0 0 0 0 0 0 0 0 0 0 0 0 0 0 0 0.05 0"/>
<feBlend mode="normal" in2="BackgroundImageFix" result="effect1_dropShadow_2014_1937"/>
<feBlend mode="normal" in="SourceGraphic" in2="effect1_dropShadow_2014_1937" result="shape"/>
</filter>
</defs>
</svg>
